<svg width="104" height="20" viewBox="0 0 104 20" fill="none" xmlns="http://www.w3.org/2000/svg">
<path fill-rule="evenodd" clip-rule="evenodd" d="M93.1671 2.65829C93.2247 2.47575 93.3389 2.31632 93.4933 2.20315C93.6477 2.08998 93.8341 2.02896 94.0255 2.02896C94.2169 2.02896 94.4033 2.08998 94.5576 2.20315C94.712 2.31632 94.8262 2.47575 94.8838 2.65829L96.4338 7.42495H101.434C101.632 7.41746 101.827 7.47507 101.99 7.58899C102.152 7.7029 102.273 7.86686 102.333 8.0558C102.394 8.24474 102.391 8.44829 102.325 8.63533C102.258 8.82238 102.133 8.98263 101.967 9.09162L97.9088 12.0333L99.4588 16.8083C99.5201 16.9902 99.5216 17.1869 99.4632 17.3697C99.4048 17.5526 99.2894 17.7119 99.134 17.8245C98.9786 17.9371 98.7912 17.9971 98.5993 17.9957C98.4073 17.9943 98.2209 17.9315 98.0671 17.8166L94.0005 14.8416L89.9421 17.7916C89.7884 17.9065 89.6019 17.9693 89.41 17.9707C89.2181 17.9721 89.0307 17.9121 88.8753 17.7995C88.7198 17.6869 88.6045 17.5276 88.5461 17.3447C88.4876 17.1619 88.4892 16.9652 88.5505 16.7833L90.1005 12.0083L86.0421 9.06662C85.8764 8.95763 85.7508 8.79738 85.6847 8.61033C85.6186 8.42329 85.6156 8.21975 85.676 8.0308C85.7365 7.84186 85.8571 7.6779 86.0196 7.56399C86.182 7.45007 86.3772 7.39246 86.5755 7.39995H91.5755L93.1671 2.65829Z" fill="#FDBC15"/>
<path fill-rule="evenodd" clip-rule="evenodd" d="M72.1671 2.65829C72.2247 2.47575 72.3389 2.31632 72.4933 2.20315C72.6477 2.08998 72.8341 2.02896 73.0255 2.02896C73.2169 2.02896 73.4033 2.08998 73.5576 2.20315C73.712 2.31632 73.8262 2.47575 73.8838 2.65829L75.4338 7.42495H80.4338C80.632 7.41746 80.8273 7.47507 80.9897 7.58899C81.1521 7.7029 81.2728 7.86686 81.3332 8.0558C81.3937 8.24474 81.3906 8.44829 81.3245 8.63533C81.2584 8.82238 81.1329 8.98263 80.9671 9.09162L76.9088 12.0333L78.4588 16.8083C78.5201 16.9902 78.5216 17.1869 78.4632 17.3697C78.4048 17.5526 78.2894 17.7119 78.134 17.8245C77.9786 17.9371 77.7912 17.9971 77.5993 17.9957C77.4073 17.9943 77.2209 17.9315 77.0671 17.8166L73.0005 14.8416L68.9421 17.7916C68.7884 17.9065 68.6019 17.9693 68.41 17.9707C68.2181 17.9721 68.0307 17.9121 67.8753 17.7995C67.7198 17.6869 67.6045 17.5276 67.5461 17.3447C67.4876 17.1619 67.4892 16.9652 67.5505 16.7833L69.1005 12.0083L65.0421 9.06662C64.8764 8.95763 64.7508 8.79738 64.6847 8.61033C64.6186 8.42329 64.6156 8.21975 64.676 8.0308C64.7365 7.84186 64.8571 7.6779 65.0196 7.56399C65.182 7.45007 65.3772 7.39246 65.5755 7.39995H70.5755L72.1671 2.65829Z" fill="#FDBC15"/>
<path fill-rule="evenodd" clip-rule="evenodd" d="M51.1671 2.65829C51.2247 2.47575 51.3389 2.31632 51.4933 2.20315C51.6477 2.08998 51.8341 2.02896 52.0255 2.02896C52.2169 2.02896 52.4033 2.08998 52.5576 2.20315C52.712 2.31632 52.8262 2.47575 52.8838 2.65829L54.4338 7.42495H59.4338C59.632 7.41746 59.8273 7.47507 59.9897 7.58899C60.1521 7.7029 60.2728 7.86686 60.3332 8.0558C60.3937 8.24474 60.3906 8.44829 60.3245 8.63533C60.2584 8.82238 60.1329 8.98263 59.9671 9.09162L55.9088 12.0333L57.4588 16.8083C57.5201 16.9902 57.5216 17.1869 57.4632 17.3697C57.4048 17.5526 57.2894 17.7119 57.134 17.8245C56.9786 17.9371 56.7912 17.9971 56.5993 17.9957C56.4073 17.9943 56.2209 17.9315 56.0671 17.8166L52.0005 14.8416L47.9421 17.7916C47.7884 17.9065 47.6019 17.9693 47.41 17.9707C47.2181 17.9721 47.0307 17.9121 46.8753 17.7995C46.7198 17.6869 46.6045 17.5276 46.5461 17.3447C46.4876 17.1619 46.4892 16.9652 46.5505 16.7833L48.1005 12.0083L44.0421 9.06662C43.8764 8.95763 43.7508 8.79738 43.6847 8.61033C43.6186 8.42329 43.6156 8.21975 43.676 8.0308C43.7365 7.84186 43.8571 7.6779 44.0196 7.56399C44.182 7.45007 44.3772 7.39246 44.5755 7.39995H49.5755L51.1671 2.65829Z" fill="#FDBC15"/>
<path fill-rule="evenodd" clip-rule="evenodd" d="M30.1671 2.65829C30.2247 2.47575 30.3389 2.31632 30.4933 2.20315C30.6477 2.08998 30.8341 2.02896 31.0255 2.02896C31.2169 2.02896 31.4033 2.08998 31.5576 2.20315C31.712 2.31632 31.8262 2.47575 31.8838 2.65829L33.4338 7.42495H38.4338C38.632 7.41746 38.8273 7.47507 38.9897 7.58899C39.1521 7.7029 39.2728 7.86686 39.3332 8.0558C39.3937 8.24474 39.3906 8.44829 39.3245 8.63533C39.2584 8.82238 39.1329 8.98263 38.9671 9.09162L34.9088 12.0333L36.4588 16.8083C36.5201 16.9902 36.5216 17.1869 36.4632 17.3697C36.4048 17.5526 36.2894 17.7119 36.134 17.8245C35.9786 17.9371 35.7912 17.9971 35.5993 17.9957C35.4073 17.9943 35.2209 17.9315 35.0671 17.8166L31.0005 14.8416L26.9421 17.7916C26.7884 17.9065 26.6019 17.9693 26.41 17.9707C26.2181 17.9721 26.0307 17.9121 25.8753 17.7995C25.7198 17.6869 25.6045 17.5276 25.5461 17.3447C25.4876 17.1619 25.4892 16.9652 25.5505 16.7833L27.1005 12.0083L23.0421 9.06662C22.8764 8.95763 22.7508 8.79738 22.6847 8.61033C22.6186 8.42329 22.6156 8.21975 22.676 8.0308C22.7365 7.84186 22.8571 7.6779 23.0196 7.56399C23.182 7.45007 23.3772 7.39246 23.5755 7.39995H28.5755L30.1671 2.65829Z" fill="#FDBC15"/>
<path fill-rule="evenodd" clip-rule="evenodd" d="M9.16713 2.65829C9.22469 2.47575 9.33895 2.31632 9.4933 2.20315C9.64766 2.08998 9.83407 2.02896 10.0255 2.02896C10.2169 2.02896 10.4033 2.08998 10.5576 2.20315C10.712 2.31632 10.8262 2.47575 10.8838 2.65829L12.4338 7.42495H17.4338C17.632 7.41746 17.8273 7.47507 17.9897 7.58899C18.1521 7.7029 18.2728 7.86686 18.3332 8.0558C18.3937 8.24474 18.3906 8.44829 18.3245 8.63533C18.2584 8.82238 18.1329 8.98263 17.9671 9.09162L13.9088 12.0333L15.4588 16.8083C15.5201 16.9902 15.5216 17.1869 15.4632 17.3697C15.4048 17.5526 15.2894 17.7119 15.134 17.8245C14.9786 17.9371 14.7912 17.9971 14.5993 17.9957C14.4073 17.9943 14.2209 17.9315 14.0671 17.8166L10.0005 14.8416L5.94213 17.7916C5.78839 17.9065 5.60193 17.9693 5.41 17.9707C5.21807 17.9721 5.0307 17.9121 4.87527 17.7995C4.71984 17.6869 4.60449 17.5276 4.54605 17.3447C4.48762 17.1619 4.48916 16.9652 4.55046 16.7833L6.10046 12.0083L2.04213 9.06662C1.87637 8.95763 1.75084 8.79738 1.68473 8.61033C1.61862 8.42329 1.61556 8.21975 1.67603 8.0308C1.73649 7.84186 1.85715 7.6779 2.01956 7.56399C2.18198 7.45007 2.37722 7.39246 2.57546 7.39995H7.57546L9.16713 2.65829Z" fill="#FDBC15"/>
</svg>
